<svg width="21" height="12" viewBox="0 0 21 12" fill="none" xmlns="http://www.w3.org/2000/svg">
<path d="M14.6466 0H6.64661C1.90061 0 0.646606 5.233 0.646606 8C0.646606 8.404 0.890606 8.768 1.26261 8.922C1.91761 9.196 2.19161 8.831 2.64661 8.442V9C2.64661 10.654 3.99261 12 5.64661 12H15.6466C17.3006 12 18.6466 10.654 18.6466 9V8.442C19.0916 8.823 19.3826 9.192 20.0306 8.922C20.4026 8.768 20.6466 8.404 20.6466 8C20.6466 5.233 19.3926 0 14.6466 0ZM18.3776 5.81C17.5906 5.368 16.6386 5 15.6466 5H15.1246L16.1816 2.358C17.4686 3.028 18.0846 4.525 18.3776 5.81ZM8.32461 2H10.1696L8.96961 5H7.12461L8.32461 2ZM12.3246 2H14.1696L12.9696 5H11.1246L12.3246 2ZM6.14661 2.057L4.94461 5.061C4.20961 5.182 3.51361 5.473 2.91561 5.81C3.27761 4.224 4.14461 2.336 6.14661 2.057ZM16.6466 9C16.6466 9.551 16.1976 10 15.6466 10H5.64661C5.09561 10 4.64661 9.551 4.64661 9V7.204C4.98061 7.079 5.32161 7 5.64661 7H15.6466C15.9716 7 16.3126 7.079 16.6466 7.204V9Z" fill="black"/>
</svg>
